<svg width="100%" height="100%" viewBox="0 0 16 16" version="1.1" xmlns="http://www.w3.org/2000/svg">
<path fill="#c5c5c5" d="M1.496,15l-0.496,-0.579l0,-12.842l0.496,-0.579l2.496,0l0,1.176l-2,0l0,11.667l2,0l0,1.157l-2.496,0Zm12.992,-14l0.512,0.579l0,12.842l-0.512,0.579l-2.496,0l0,-1.157l2,0l0,-11.667l-2,0l0,-1.176l2.496,0Z"/>
<path fill="#c5c5c5" d="M7.958,11.822c-0.383,0 -0.763,-0.051 -1.141,-0.154c-0.378,-0.103 -0.716,-0.287 -1.015,-0.553c-0.299,-0.266 -0.513,-0.581 -0.644,-0.945l1.526,-0.546c0.196,0.476 0.621,0.714 1.274,0.714c0.168,0 0.338,-0.016 0.511,-0.049c0.173,-0.033 0.331,-0.107 0.476,-0.224c0.145,-0.117 0.217,-0.264 0.217,-0.441c0,-0.317 -0.17,-0.546 -0.511,-0.686c-0.341,-0.14 -0.667,-0.215 -0.98,-0.224c-0.313,-0.009 -0.623,-0.063 -0.931,-0.161c-0.308,-0.098 -0.583,-0.254 -0.826,-0.469c-0.243,-0.215 -0.425,-0.474 -0.546,-0.777c-0.121,-0.303 -0.182,-0.614 -0.182,-0.931c0,-0.345 0.079,-0.672 0.238,-0.98c0.159,-0.308 0.385,-0.553 0.679,-0.735c0.294,-0.182 0.607,-0.308 0.938,-0.378c0.331,-0.07 0.665,-0.105 1.001,-0.105c0.383,0 0.763,0.051 1.141,0.154c0.378,0.103 0.716,0.287 1.015,0.553c0.299,0.266 0.513,0.581 0.644,0.945l-1.526,0.546c-0.196,-0.476 -0.621,-0.714 -1.274,-0.714c-0.168,0 -0.338,0.016 -0.511,0.049c-0.173,0.033 -0.331,0.107 -0.476,0.224c-0.145,0.117 -0.217,0.264 -0.217,0.441c0,0.317 0.17,0.546 0.511,0.686c0.341,0.14 0.667,0.215 0.98,0.224c0.313,0.009 0.623,0.063 0.931,0.161c0.308,0.098 0.583,0.254 0.826,0.469c0.243,0.215 0.425,0.474 0.546,0.777c0.121,0.303 0.182,0.614 0.182,0.931c0,0.345 -0.079,0.672 -0.238,0.98c-0.159,0.308 -0.385,0.553 -0.679,0.735c-0.294,0.182 -0.607,0.308 -0.938,0.378c-0.331,0.07 -0.665,0.105 -1.001,0.105Z"/>
</svg>
