<svg width="100%" height="100%" viewBox="0 0 16 16" version="1.1" xmlns="http://www.w3.org/2000/svg">
<path d="M7.142,11.84c0.366,0.217 0.755,0.32 1.167,0.309c0.366,0.011 0.715,-0.063 1.047,-0.223c0.332,-0.16 0.606,-0.389 0.824,-0.686c0.251,-0.32 0.437,-0.674 0.557,-1.063c0.121,-0.389 0.169,-0.789 0.146,-1.2c0.023,-0.355 -0.02,-0.706 -0.128,-1.055c-0.109,-0.348 -0.272,-0.666 -0.49,-0.951c-0.206,-0.263 -0.463,-0.463 -0.772,-0.601c-0.309,-0.137 -0.635,-0.2 -0.978,-0.188c-0.458,0 -0.887,0.12 -1.287,0.36c-0.126,0.069 -0.241,0.154 -0.344,0.257l0,-2.949l-1.064,0l0,8.179l1.064,0l0,-0.378c0.081,0.069 0.166,0.132 0.258,0.189Zm0.686,-4.527c0.195,-0.091 0.401,-0.131 0.618,-0.12c0.195,0 0.378,0.04 0.549,0.12c0.172,0.081 0.309,0.195 0.412,0.343c0.286,0.4 0.418,0.846 0.395,1.338c0.023,0.583 -0.12,1.114 -0.429,1.594c-0.114,0.172 -0.263,0.306 -0.446,0.403c-0.183,0.097 -0.378,0.146 -0.584,0.146c-0.206,0 -0.4,-0.037 -0.583,-0.111c-0.183,-0.075 -0.338,-0.192 -0.464,-0.352c-0.286,-0.32 -0.423,-0.691 -0.412,-1.114l0,-0.652c-0.011,-0.457 0.126,-0.863 0.412,-1.217c0.149,-0.172 0.326,-0.297 0.532,-0.378Zm-4.891,-1.097c-0.355,0 -0.689,0.052 -1.004,0.154c-0.315,0.103 -0.603,0.252 -0.867,0.446l-0.103,0.086l0,1.286l0.447,-0.394c0.412,-0.389 0.904,-0.595 1.476,-0.618c0.125,-0.011 0.251,0.012 0.377,0.069c0.126,0.057 0.235,0.137 0.326,0.24c0.16,0.251 0.241,0.531 0.241,0.84l-1.322,0.189c-0.549,0.057 -1.041,0.263 -1.476,0.617c-0.172,0.16 -0.303,0.349 -0.395,0.566c-0.091,0.217 -0.137,0.443 -0.137,0.677c0,0.234 0.043,0.46 0.129,0.677c0.086,0.218 0.217,0.412 0.394,0.583c0.178,0.172 0.381,0.297 0.61,0.378c0.229,0.08 0.469,0.114 0.721,0.102c0.434,0.012 0.829,-0.102 1.184,-0.343c0.114,-0.08 0.217,-0.165 0.309,-0.257l0,0.48l1.012,0l0,-3.6c0.023,-0.286 -0.011,-0.569 -0.103,-0.849c-0.091,-0.28 -0.223,-0.534 -0.394,-0.763c-0.184,-0.194 -0.401,-0.343 -0.653,-0.446c-0.251,-0.103 -0.509,-0.143 -0.772,-0.12Zm0.91,3.258c0.023,0.457 -0.115,0.863 -0.412,1.217c-0.138,0.149 -0.295,0.263 -0.472,0.343c-0.178,0.08 -0.363,0.12 -0.558,0.12c-0.114,0.012 -0.229,-0.003 -0.343,-0.043c-0.115,-0.04 -0.218,-0.1 -0.309,-0.18c-0.149,-0.16 -0.223,-0.351 -0.223,-0.574c0,-0.223 0.074,-0.42 0.223,-0.592c0.309,-0.183 0.641,-0.291 0.995,-0.325l1.099,-0.155l0,0.189Zm8.924,2.486c0.332,0.137 0.681,0.2 1.047,0.189c0.538,0.011 1.041,-0.12 1.51,-0.395l0.138,-0.085l0,-1.235l-0.481,0.343c-0.343,0.251 -0.726,0.371 -1.15,0.36c-0.217,0 -0.426,-0.043 -0.626,-0.129c-0.2,-0.085 -0.369,-0.208 -0.506,-0.368c-0.321,-0.423 -0.464,-0.892 -0.43,-1.406c-0.011,-0.274 0.023,-0.54 0.103,-0.797c0.081,-0.258 0.206,-0.489 0.378,-0.695c0.16,-0.183 0.346,-0.32 0.558,-0.411c0.211,-0.092 0.437,-0.132 0.678,-0.12c0.377,-0.012 0.726,0.085 1.047,0.291l0.463,0.292l0,-1.269l-0.189,-0.069c-0.4,-0.183 -0.818,-0.274 -1.253,-0.274c-0.389,-0.012 -0.766,0.06 -1.132,0.214c-0.367,0.155 -0.681,0.377 -0.944,0.669c-0.263,0.291 -0.467,0.629 -0.61,1.011c-0.143,0.383 -0.203,0.775 -0.18,1.175c-0.023,0.377 0.029,0.746 0.155,1.106c0.126,0.36 0.311,0.68 0.557,0.96c0.246,0.28 0.535,0.494 0.867,0.643Z" fill="#c5c5c5" />
</svg>
