<svg width="16" height="16" viewBox="0 0 16 16" xmlns="http://www.w3.org/2000/svg">
<path d="M5.667,13.861l0,1.139l-0.112,0c-0.361,0 -0.713,-0.072 -1.055,-0.215c-0.342,-0.143 -0.644,-0.348 -0.905,-0.616c-0.262,-0.267 -0.455,-0.563 -0.579,-0.886c-0.112,-0.311 -0.187,-0.635 -0.224,-0.971c-0.037,-0.324 -0.047,-0.656 -0.028,-0.999c0.019,-0.342 0.028,-0.681 0.028,-1.017c0,-0.236 -0.05,-0.46 -0.149,-0.672c-0.087,-0.199 -0.206,-0.376 -0.355,-0.532c-0.149,-0.156 -0.327,-0.28 -0.532,-0.373c-0.205,-0.094 -0.42,-0.14 -0.644,-0.14l-0.112,0l0,-1.158l0.112,0c0.224,0 0.436,-0.043 0.635,-0.13c0.211,-0.1 0.392,-0.224 0.541,-0.374c0.149,-0.161 0.268,-0.342 0.355,-0.541l0,-0.019c0.099,-0.199 0.149,-0.417 0.149,-0.653c0,-0.336 -0.009,-0.675 -0.028,-1.017c-0.019,-0.343 -0.009,-0.682 0.028,-1.018c0.037,-0.323 0.112,-0.641 0.224,-0.952c0.124,-0.323 0.317,-0.619 0.579,-0.886c0.261,-0.268 0.563,-0.473 0.905,-0.616c0.342,-0.143 0.694,-0.215 1.055,-0.215l0.112,0l0,1.139l-0.112,0c-0.224,0 -0.439,0.046 -0.644,0.14c-0.206,0.093 -0.383,0.217 -0.532,0.373c-0.15,0.156 -0.271,0.339 -0.364,0.551c-0.094,0.211 -0.14,0.435 -0.14,0.672c0,0.261 0.006,0.522 0.018,0.784c0.013,0.261 0.016,0.519 0.01,0.774c-0.007,0.255 -0.028,0.504 -0.066,0.747c-0.037,0.243 -0.102,0.476 -0.196,0.7c-0.093,0.224 -0.221,0.442 -0.382,0.653c-0.125,0.162 -0.287,0.318 -0.486,0.467c0.199,0.149 0.361,0.305 0.486,0.467c0.161,0.211 0.289,0.429 0.382,0.653c0.094,0.224 0.159,0.457 0.196,0.7c0.038,0.243 0.059,0.492 0.066,0.747c0.006,0.255 0.003,0.513 -0.01,0.774c-0.012,0.262 -0.018,0.523 -0.018,0.784c0,0.237 0.046,0.461 0.14,0.672c0.093,0.212 0.214,0.395 0.364,0.551c0.149,0.156 0.326,0.28 0.532,0.373c0.205,0.094 0.42,0.14 0.644,0.14l0.112,0Zm4.666,-11.722l0,-1.139l0.112,0c0.361,0 0.713,0.072 1.055,0.215c0.342,0.143 0.644,0.348 0.905,0.616c0.262,0.267 0.455,0.563 0.579,0.886c0.112,0.311 0.187,0.635 0.224,0.971c0.037,0.324 0.047,0.656 0.028,0.999c-0.019,0.342 -0.028,0.681 -0.028,1.017c0,0.236 0.05,0.46 0.149,0.672c0.087,0.199 0.206,0.376 0.355,0.532c0.149,0.156 0.327,0.28 0.532,0.373c0.205,0.094 0.42,0.14 0.644,0.14l0.112,0l0,1.158l-0.112,0c-0.224,0 -0.436,0.043 -0.635,0.13c-0.211,0.1 -0.392,0.224 -0.541,0.374c-0.149,0.161 -0.268,0.342 -0.355,0.541l0,0.019c-0.099,0.199 -0.149,0.417 -0.149,0.653c0,0.336 0.009,0.675 0.028,1.017c0.019,0.343 0.009,0.682 -0.028,1.018c-0.037,0.323 -0.112,0.641 -0.224,0.952c-0.124,0.323 -0.317,0.619 -0.579,0.886c-0.261,0.268 -0.563,0.473 -0.905,0.616c-0.342,0.143 -0.694,0.215 -1.055,0.215l-0.112,0l0,-1.139l0.112,0c0.224,0 0.439,-0.046 0.644,-0.14c0.206,-0.093 0.383,-0.217 0.532,-0.373c0.15,-0.156 0.271,-0.339 0.364,-0.551c0.094,-0.211 0.14,-0.435 0.14,-0.672c0,-0.261 -0.006,-0.522 -0.018,-0.784c-0.013,-0.261 -0.016,-0.519 -0.01,-0.774c0.007,-0.255 0.028,-0.504 0.066,-0.747c0.037,-0.243 0.102,-0.476 0.196,-0.7c0.093,-0.224 0.221,-0.442 0.382,-0.653c0.125,-0.162 0.287,-0.318 0.486,-0.467c-0.199,-0.149 -0.361,-0.305 -0.486,-0.467c-0.161,-0.211 -0.289,-0.429 -0.382,-0.653c-0.094,-0.224 -0.159,-0.457 -0.196,-0.7c-0.038,-0.243 -0.059,-0.492 -0.066,-0.747c-0.006,-0.255 -0.003,-0.513 0.01,-0.774c0.012,-0.262 0.018,-0.523 0.018,-0.784c0,-0.237 -0.046,-0.461 -0.14,-0.672c-0.093,-0.212 -0.214,-0.395 -0.364,-0.551c-0.149,-0.156 -0.326,-0.28 -0.532,-0.373c-0.205,-0.094 -0.42,-0.14 -0.644,-0.14l-0.112,0Z" fill="#424242"/>
</svg>
